<?xml version="1.0" encoding="UTF-8"?>
<svg id="Layer_2" data-name="Layer 2" xmlns="http://www.w3.org/2000/svg" viewBox="0 0 2732 2732">
  <defs>
    <style>
      .cls-1 {
        fill: #fff;
      }

      .cls-2 {
        fill: #ffe2b6;
      }

      .cls-3 {
        fill: #008a2b;
      }

      .cls-4 {
        fill: #7fda6d;
      }

      .cls-5 {
        fill: #ffc29b;
      }

      .cls-6 {
        fill: #ffeaac;
      }

      .cls-7 {
        fill: #ffb07a;
      }

      .cls-8 {
        fill: #ff8053;
      }

      .cls-9 {
        fill: #493b62;
      }

      .cls-10 {
        fill: #42b55e;
      }
    </style>
  </defs>
  <g id="Layer_1-2" data-name="Layer 1">
    <rect class="cls-6" width="2732" height="2732"/>
    <g>
      <g>
        <rect class="cls-2" x="396.51" y="1230.81" width="52.21" height="52.21"/>
        <rect class="cls-2" x="344.39" y="1335.14" width="52.11" height="52.21"/>
        <g>
          <rect class="cls-4" x="605.15" y="1178.7" width="52.21" height="52.11"/>
          <rect class="cls-4" x="605.15" y="1074.38" width="52.21" height="52.11"/>
          <polygon class="cls-4" points="553.04 1126.49 553.04 1074.38 553.04 1022.27 553.04 970.06 500.83 970.06 448.72 970.06 448.72 1022.27 448.72 1074.38 448.72 1126.49 396.51 1126.49 396.51 1178.7 448.72 1178.7 500.83 1178.7 553.04 1178.7 605.15 1178.7 605.15 1126.49 553.04 1126.49"/>
          <rect class="cls-4" x="344.39" y="1178.7" width="52.11" height="52.11"/>
          <rect class="cls-4" x="344.39" y="1074.38" width="52.11" height="52.11"/>
        </g>
        <polygon class="cls-7" points="605.15 1230.81 605.15 1178.7 553.04 1178.7 500.83 1178.7 448.72 1178.7 396.51 1178.7 396.51 1230.81 448.72 1230.81 448.72 1283.02 500.83 1283.02 500.83 1335.14 500.83 1387.34 500.83 1439.46 448.72 1439.46 448.72 1387.34 448.72 1335.14 448.72 1283.02 396.51 1283.02 396.51 1230.81 344.39 1230.81 344.39 1283.02 344.39 1335.14 396.51 1335.14 396.51 1387.34 344.39 1387.34 344.39 1439.46 344.39 1491.67 396.51 1491.67 396.51 1543.78 396.51 1595.89 396.51 1648.1 448.72 1648.1 448.72 1700.22 448.72 1752.42 500.83 1752.42 553.04 1752.42 553.04 1700.22 553.04 1648.1 605.15 1648.1 605.15 1595.89 605.15 1543.78 605.15 1491.67 657.36 1491.67 657.36 1439.46 657.36 1387.34 657.36 1335.14 657.36 1283.02 657.36 1230.81 605.15 1230.81"/>
        <polygon class="cls-8" points="605.15 1230.81 605.15 1283.02 605.15 1335.14 605.15 1387.34 605.15 1439.46 553.04 1439.46 553.04 1491.67 553.04 1543.78 553.04 1595.89 500.83 1595.89 448.72 1595.89 448.72 1648.1 448.72 1700.22 448.72 1752.42 500.83 1752.42 553.04 1752.42 553.04 1700.22 553.04 1648.1 605.15 1648.1 605.15 1595.89 605.15 1543.78 605.15 1491.67 657.36 1491.67 657.36 1439.46 657.36 1387.34 657.36 1335.14 657.36 1283.02 657.36 1230.81 605.15 1230.81"/>
        <rect class="cls-2" x="396.51" y="1335.14" width="52.21" height="52.21"/>
        <rect class="cls-2" x="396.51" y="1283.02" width="52.21" height="52.11"/>
        <g>
          <rect class="cls-10" x="657.36" y="1022.27" width="52.11" height="52.11"/>
          <rect class="cls-10" x="292.19" y="1022.27" width="52.21" height="52.11"/>
          <rect class="cls-10" x="553.04" y="1126.49" width="52.11" height="52.21"/>
          <rect class="cls-10" x="500.83" y="1074.38" width="52.21" height="52.11"/>
          <rect class="cls-10" x="448.72" y="1022.27" width="52.11" height="52.11"/>
          <rect class="cls-10" x="396.51" y="1126.49" width="52.21" height="52.21"/>
        </g>
        <g>
          <rect class="cls-5" x="500.83" y="1230.81" width="52.21" height="52.21"/>
          <rect class="cls-5" x="448.72" y="1491.67" width="52.11" height="52.11"/>
          <polygon class="cls-5" points="448.72 1335.14 448.72 1387.34 448.72 1439.46 500.83 1439.46 500.83 1387.34 500.83 1335.14 500.83 1283.02 448.72 1283.02 448.72 1335.14"/>
          <rect class="cls-5" x="396.51" y="1439.46" width="52.21" height="52.21"/>
          <rect class="cls-5" x="396.51" y="1230.81" width="52.21" height="52.21"/>
          <rect class="cls-5" x="344.39" y="1335.14" width="52.11" height="52.21"/>
        </g>
        <g>
          <rect class="cls-3" x="605.15" y="1178.7" width="52.21" height="52.11"/>
          <polygon class="cls-3" points="448.72 1126.49 448.72 1178.7 500.83 1178.7 553.04 1178.7 553.04 1126.49 500.83 1126.49 448.72 1126.49"/>
          <rect class="cls-3" x="344.39" y="1178.7" width="52.11" height="52.11"/>
        </g>
        <polygon class="cls-1" points="396.51 1283.02 396.51 1335.14 396.51 1387.34 448.72 1387.34 448.72 1335.14 448.72 1283.02 396.51 1283.02"/>
        <g>
          <rect class="cls-9" x="709.47" y="1022.27" width="52.11" height="52.11"/>
          <polygon class="cls-9" points="657.36 1335.14 657.36 1387.34 657.36 1439.46 657.36 1491.67 709.47 1491.67 709.47 1439.46 709.47 1387.34 709.47 1335.14 709.47 1283.02 709.47 1230.81 657.36 1230.81 657.36 1283.02 657.36 1335.14"/>
          <rect class="cls-9" x="657.36" y="1074.38" width="52.11" height="52.11"/>
          <rect class="cls-9" x="657.36" y="970.06" width="52.11" height="52.21"/>
          <polygon class="cls-9" points="605.15 1543.78 605.15 1595.89 605.15 1648.1 657.36 1648.1 657.36 1595.89 657.36 1543.78 657.36 1491.67 605.15 1491.67 605.15 1543.78"/>
          <polygon class="cls-9" points="605.15 1178.7 605.15 1230.81 657.36 1230.81 657.36 1178.7 657.36 1126.49 605.15 1126.49 605.15 1178.7"/>
          <polygon class="cls-9" points="553.04 1700.22 553.04 1752.42 605.15 1752.42 605.15 1700.22 605.15 1648.1 553.04 1648.1 553.04 1700.22"/>
          <polygon class="cls-9" points="553.04 1074.38 553.04 1126.49 605.15 1126.49 605.15 1074.38 657.36 1074.38 657.36 1022.27 605.15 1022.27 605.15 970.06 553.04 970.06 553.04 1022.27 553.04 1074.38"/>
          <polygon class="cls-9" points="553.04 970.06 553.04 917.94 500.83 917.94 448.72 917.94 448.72 970.06 500.83 970.06 553.04 970.06"/>
          <polygon class="cls-9" points="448.72 1752.42 448.72 1804.54 500.83 1804.54 553.04 1804.54 553.04 1752.42 500.83 1752.42 448.72 1752.42"/>
          <polygon class="cls-9" points="448.72 1648.1 396.51 1648.1 396.51 1700.22 396.51 1752.42 448.72 1752.42 448.72 1700.22 448.72 1648.1"/>
          <polygon class="cls-9" points="396.51 1543.78 396.51 1491.67 344.39 1491.67 344.39 1543.78 344.39 1595.89 344.39 1648.1 396.51 1648.1 396.51 1595.89 396.51 1543.78"/>
          <polygon class="cls-9" points="396.51 1178.7 396.51 1126.49 344.39 1126.49 344.39 1178.7 344.39 1230.81 396.51 1230.81 396.51 1178.7"/>
          <polygon class="cls-9" points="396.51 1074.38 396.51 1126.49 448.72 1126.49 448.72 1074.38 448.72 1022.27 448.72 970.06 396.51 970.06 396.51 1022.27 344.39 1022.27 344.39 1074.38 396.51 1074.38"/>
          <polygon class="cls-9" points="344.39 1387.34 344.39 1335.14 344.39 1283.02 344.39 1230.81 292.19 1230.81 292.19 1283.02 292.19 1335.14 292.19 1387.34 292.19 1439.46 292.19 1491.67 344.39 1491.67 344.39 1439.46 344.39 1387.34"/>
          <rect class="cls-9" x="292.19" y="1074.38" width="52.21" height="52.11"/>
          <rect class="cls-9" x="292.19" y="970.06" width="52.21" height="52.21"/>
          <rect class="cls-9" x="240.07" y="1022.27" width="52.11" height="52.11"/>
        </g>
      </g>
      <g>
        <path class="cls-9" d="M890.04,1024.53c29.82,.92,59.65,1.74,89.47,2.46-.41,9.94-.82,19.87-1.23,29.81,19.89,.48,39.77,.92,59.66,1.33-.41,9.94-.82,19.87-1.23,29.81,9.94,.2,19.89,.39,29.83,.58-.82,19.87-1.63,39.74-2.45,59.62,9.95,.18,19.89,.36,29.84,.52-2.04,49.68-4.09,99.36-6.13,149.04-9.95-.17-19.89-.34-29.84-.52-.82,19.87-1.63,39.74-2.45,59.62-19.89-.37-39.78-.77-59.67-1.21-.41,9.94-.82,19.87-1.23,29.81-49.72-1.1-99.43-2.45-149.12-4.11l1.23-29.81c-19.88-.66-39.75-1.37-59.63-2.14,.82-19.87,1.63-39.74,2.45-59.62-9.94-.38-19.87-.78-29.81-1.19,2.04-49.68,4.09-99.36,6.13-149.04,9.94,.41,19.87,.8,29.81,1.19,.82-19.87,1.63-39.74,2.45-59.62,9.94,.38,19.87,.75,29.81,1.11,.41-9.94,.82-19.87,1.23-29.81,19.88,.71,39.75,1.37,59.63,1.99,.41-9.94,.82-19.87,1.23-29.81Zm-3.68,89.42l-1.23,29.81c-9.94-.31-19.88-.63-29.82-.96-.82,19.87-1.63,39.74-2.45,59.62,9.94,.33,19.88,.65,29.82,.96l-1.23,29.81c19.88,.61,39.76,1.18,59.65,1.71,.41-9.94,.82-19.87,1.23-29.81,9.94,.26,19.88,.51,29.83,.75,.82-19.87,1.63-39.74,2.45-59.62-9.94-.24-19.89-.49-29.83-.75,.41-9.94,.82-19.87,1.23-29.81-19.88-.52-39.77-1.09-59.65-1.71Z"/>
        <path class="cls-9" d="M1218.22,1031.03c59.69,.64,119.39,1.05,179.09,1.33l-1.23,29.81c9.95,.05,19.9,.09,29.85,.13-.41,9.94-.82,19.87-1.23,29.81,9.95,.04,19.9,.08,29.85,.11-1.63,39.74-3.27,79.49-4.9,119.23-9.95-.03-19.9-.07-29.85-.11-.41,9.94-.82,19.87-1.23,29.81-9.95-.04-19.9-.08-29.85-.13l-1.23,29.81c9.95,.05,19.9,.09,29.85,.13-.41,9.94-.82,19.87-1.23,29.81,9.95,.04,19.9,.08,29.85,.11-.82,19.87-1.63,39.74-2.45,59.62-9.95-.03-19.9-.07-29.85-.11-.41,9.94-.82,19.87-1.23,29.81-29.85-.12-59.71-.27-89.56-.45l1.23-29.81c-9.95-.06-19.9-.13-29.85-.2l1.23-29.81c-9.95-.07-19.9-.15-29.85-.23,.41-9.94,.82-19.87,1.23-29.81-9.95-.08-19.9-.17-29.85-.27-.82,19.87-1.63,39.74-2.45,59.62-9.95-.09-19.9-.19-29.85-.3-.41,9.94-.82,19.87-1.23,29.81-19.9-.21-39.79-.45-59.69-.72,.41-9.94,.82-19.87,1.23-29.81-9.95-.13-19.89-.28-29.84-.43,2.04-49.68,4.09-99.36,6.13-149.04,9.95,.15,19.89,.29,29.84,.43l3.68-89.42c9.95,.13,19.89,.26,29.84,.38,.82-19.87,1.63-39.74,2.45-59.62,9.95,.12,19.9,.23,29.84,.34,.41-9.94,.82-19.87,1.23-29.81Zm56.02,89.99l-1.23,29.81c-9.95-.08-19.9-.17-29.85-.27-.82,19.87-1.63,39.74-2.45,59.62,19.9,.19,39.8,.35,59.7,.5,.41-9.94,.82-19.87,1.23-29.81,9.95,.07,19.9,.14,29.85,.2,.82-19.87,1.63-39.74,2.45-59.62-19.9-.13-39.8-.27-59.7-.43Z"/>
        <path class="cls-9" d="M1576.45,1032.91c69.66,.14,139.33,.25,208.99,.49-.41,9.94-.82,19.87-1.23,29.81,9.95,.03,19.9,.07,29.85,.11-.82,19.87-1.63,39.74-2.45,59.62-9.95-.04-19.9-.08-29.85-.11l-1.23,29.81c-19.9-.07-39.81-.13-59.71-.18-1.63,39.74-3.27,79.49-4.9,119.23,9.95,.03,19.9,.05,29.86,.08-1.23,29.81-2.45,59.62-3.68,89.42-9.95-.03-19.9-.06-29.86-.08-.41,9.94-.82,19.87-1.23,29.81-29.85-.08-59.71-.14-89.57-.2,.82-19.87,1.63-39.74,2.45-59.62-9.95-.02-19.9-.04-29.86-.06l6.13-149.04c-9.95-.02-19.9-.04-29.86-.06-.41,9.94-.82,19.87-1.23,29.81-19.9-.04-39.81-.09-59.71-.14l1.23-29.81c-9.95-.03-19.9-.05-29.85-.08,1.23-29.81,2.45-59.62,3.68-89.42,9.95,.03,19.9,.06,29.85,.08,.41-9.94,.82-19.87,1.23-29.81,19.9,.05,39.81,.09,59.71,.14l1.23-29.81Z"/>
        <path class="cls-9" d="M1875,1033.79c29.85,.16,59.7,.36,89.55,.61-.41,9.94-.82,19.87-1.23,29.81,9.95,.08,19.9,.17,29.85,.27-1.23,29.81-2.45,59.62-3.68,89.42-9.95-.09-19.9-.18-29.85-.27-1.23,29.81-2.45,59.62-3.68,89.42,9.95,.08,19.9,.17,29.85,.27-.41,9.94-.82,19.87-1.23,29.81,9.95,.09,19.9,.19,29.85,.3l1.23-29.81c9.95,.11,19.9,.22,29.84,.34,.82-19.87,1.63-39.74,2.45-59.62-9.95-.12-19.9-.23-29.84-.34,1.23-29.81,2.45-59.62,3.68-89.42,9.95,.11,19.9,.22,29.84,.34,.41-9.94,.82-19.87,1.23-29.81,19.9,.24,39.79,.51,59.68,.81-.41,9.94-.82,19.87-1.23,29.81,9.95,.15,19.89,.31,29.84,.47-.82,19.87-1.63,39.74-2.45,59.62,9.95,.17,19.89,.34,29.84,.52l-6.13,149.04c-9.95-.18-19.89-.36-29.84-.52-.82,19.87-1.63,39.74-2.45,59.62-9.95-.17-19.89-.32-29.84-.47l-1.23,29.81c-69.63-1.05-139.27-1.71-208.92-2.15,.41-9.94,.82-19.87,1.23-29.81-9.95-.06-19.9-.12-29.85-.18,.82-19.87,1.63-39.74,2.45-59.62-9.95-.05-19.9-.1-29.85-.15l8.58-208.65c9.95,.05,19.9,.1,29.85,.15,.82-19.87,1.63-39.74,2.45-59.62Z"/>
        <path class="cls-9" d="M844.53,1405.11c49.7,1.65,99.4,3,149.12,4.11l-1.23,29.81c9.94,.22,19.89,.43,29.83,.63-.82,19.87-1.63,39.74-2.45,59.62-9.94-.2-19.89-.41-29.83-.63l-1.23,29.81c-19.89-.44-39.77-.92-59.66-1.45,.41-9.94,.82-19.87,1.23-29.81-9.94-.26-19.88-.53-29.82-.82l-1.23,29.81c9.94,.28,19.88,.56,29.82,.82-.41,9.94-.82,19.87-1.23,29.81,19.88,.52,39.77,1,59.66,1.45-.41,9.94-.82,19.87-1.23,29.81,9.94,.22,19.89,.43,29.83,.63-.41,9.94-.82,19.87-1.23,29.81,9.94,.2,19.89,.39,29.83,.58l-3.68,89.42c-9.95-.18-19.89-.38-29.83-.58-.41,9.94-.82,19.87-1.23,29.81-19.89-.4-39.78-.84-59.66-1.33-.41,9.94-.82,19.87-1.23,29.81-59.66-1.45-119.3-3.26-178.92-5.55,.41-9.94,.82-19.87,1.23-29.81-9.94-.38-19.87-.78-29.81-1.19,1.23-29.81,2.45-59.62,3.68-89.42,9.94,.41,19.87,.8,29.81,1.19l1.23-29.81c19.87,.76,39.75,1.47,59.63,2.14-.41,9.94-.82,19.87-1.23,29.81,19.88,.66,39.76,1.28,59.64,1.84l1.23-29.81c-19.88-.57-39.76-1.18-59.64-1.84l1.23-29.81c-9.94-.33-19.88-.67-29.82-1.03l1.23-29.81c-9.94-.36-19.88-.72-29.81-1.11,1.23-29.81,2.45-59.62,3.68-89.42,9.94,.38,19.87,.75,29.81,1.11l1.23-29.81c9.94,.36,19.88,.7,29.82,1.03,.41-9.94,.82-19.87,1.23-29.81Z"/>
        <path class="cls-9" d="M1172.69,1412.24c59.69,.72,119.38,1.19,179.09,1.52l-1.23,29.81c9.95,.05,19.9,.1,29.85,.15-.82,19.87-1.63,39.74-2.45,59.62-9.95-.05-19.9-.1-29.85-.15-.41,9.94-.82,19.87-1.23,29.81-39.8-.22-79.6-.5-119.4-.88-.41,9.94-.82,19.87-1.23,29.81,29.85,.28,59.7,.51,89.55,.7-.82,19.87-1.63,39.74-2.45,59.62-9.95-.06-19.9-.13-29.85-.2l-1.23,29.81c-29.85-.22-59.7-.48-89.54-.8-.41,9.94-.82,19.87-1.23,29.81,49.74,.53,99.49,.91,149.24,1.18-.82,19.87-1.63,39.74-2.45,59.62-9.95-.05-19.9-.11-29.85-.18-.41,9.94-.82,19.87-1.23,29.81-69.65-.44-139.29-1.1-208.92-2.15,.41-9.94,.82-19.87,1.23-29.81-9.95-.15-19.89-.31-29.84-.47,2.04-49.68,4.09-99.36,6.13-149.04,9.95,.17,19.89,.32,29.84,.47,1.23-29.81,2.45-59.62,3.68-89.42,9.95,.15,19.89,.29,29.84,.43,.82-19.87,1.63-39.74,2.45-59.62,9.95,.13,19.89,.26,29.84,.38,.41-9.94,.82-19.87,1.23-29.81Z"/>
        <path class="cls-9" d="M1441.34,1414.15c19.9,.07,39.81,.13,59.71,.18l-1.23,29.81c9.95,.03,19.9,.05,29.86,.07-1.23,29.81-2.45,59.62-3.68,89.42,19.9,.04,39.81,.09,59.71,.12,1.23-29.81,2.45-59.62,3.68-89.42,9.95,.02,19.9,.04,29.86,.06l1.23-29.81c19.9,.04,39.81,.08,59.71,.12-.82,19.87-1.63,39.74-2.45,59.62,9.95,.02,19.9,.05,29.86,.07-1.63,39.74-3.27,79.49-4.9,119.23,9.95,.03,19.9,.05,29.85,.08-2.04,49.68-4.09,99.36-6.13,149.04-9.95-.03-19.9-.06-29.85-.08l-1.23,29.81c-19.9-.05-39.81-.09-59.71-.14l1.23-29.81c-9.95-.02-19.9-.04-29.86-.06,1.23-29.81,2.45-59.62,3.68-89.42-29.86-.06-59.71-.12-89.57-.18-1.23,29.81-2.45,59.62-3.68,89.42-9.95-.02-19.9-.05-29.86-.07-.41,9.94-.82,19.87-1.23,29.81-19.9-.05-39.81-.11-59.71-.18l1.23-29.81c-9.95-.03-19.9-.07-29.85-.11,4.09-99.36,8.17-198.72,12.26-298.08,9.95,.04,19.9,.08,29.85,.11l1.23-29.81Z"/>
        <path class="cls-9" d="M1919.01,1415.72c39.8,.29,79.59,.66,119.39,1.14l-1.23,29.81c9.95,.12,19.9,.25,29.84,.38-.82,19.87-1.63,39.74-2.45,59.62,9.95,.13,19.89,.28,29.84,.43-3.27,79.49-6.54,158.98-9.81,238.46-9.95-.15-19.89-.29-29.84-.43-.41,9.94-.82,19.87-1.23,29.81-19.89-.27-39.79-.51-59.69-.72,.41-9.94,.82-19.87,1.23-29.81-9.95-.11-19.9-.21-29.85-.3,.41-9.94,.82-19.87,1.23-29.81-9.95-.09-19.9-.18-29.85-.27l1.23-29.81c-19.9-.17-39.8-.31-59.7-.43l-1.23,29.81c-9.95-.06-19.9-.12-29.85-.17-.41,9.94-.82,19.87-1.23,29.81-19.9-.11-39.8-.2-59.7-.28,.41-9.94,.82-19.87,1.23-29.81-9.95-.04-19.9-.08-29.85-.11,1.23-29.81,2.45-59.62,3.68-89.42,9.95,.03,19.9,.07,29.85,.11,.82-19.87,1.63-39.74,2.45-59.62,9.95,.04,19.9,.08,29.85,.13,.82-19.87,1.63-39.74,2.45-59.62,9.95,.05,19.9,.1,29.85,.15,.41-9.94,.82-19.87,1.23-29.81,9.95,.05,19.9,.11,29.85,.17,.41-9.94,.82-19.87,1.23-29.81,9.95,.06,19.9,.13,29.85,.2l1.23-29.81Zm24.95,119.46l-1.23,29.81c-9.95-.08-19.9-.16-29.85-.23l-1.23,29.81c19.9,.14,39.8,.31,59.7,.5-.41,9.94-.82,19.87-1.23,29.81,9.95,.09,19.9,.19,29.85,.3,1.23-29.81,2.45-59.62,3.68-89.42-19.9-.21-39.79-.4-59.69-.57Z"/>
        <path class="cls-9" d="M2217.43,1419.88c69.61,1.55,139.19,3.57,208.75,6.24-.41,9.94-.82,19.87-1.23,29.81,9.94,.38,19.87,.78,29.81,1.19-.82,19.87-1.63,39.74-2.45,59.62-9.94-.41-19.87-.8-29.81-1.19l-1.23,29.81c-19.87-.76-39.75-1.47-59.63-2.14-1.63,39.74-3.27,79.49-4.9,119.23,9.94,.33,19.88,.67,29.82,1.03-1.23,29.81-2.45,59.62-3.68,89.42-9.94-.36-19.88-.7-29.82-1.03-.41,9.94-.82,19.87-1.23,29.81-29.82-.99-59.64-1.88-89.47-2.66,.82-19.87,1.63-39.74,2.45-59.62-9.94-.26-19.88-.51-29.83-.75,2.04-49.68,4.09-99.36,6.13-149.04-9.94-.24-19.89-.47-29.83-.69-.41,9.94-.82,19.87-1.23,29.81-19.89-.44-39.78-.84-59.67-1.21,.41-9.94,.82-19.87,1.23-29.81-9.95-.18-19.89-.36-29.84-.52,1.23-29.81,2.45-59.62,3.68-89.42,9.95,.17,19.89,.34,29.84,.52,.41-9.94,.82-19.87,1.23-29.81,19.89,.37,39.78,.77,59.67,1.21,.41-9.94,.82-19.87,1.23-29.81Z"/>
      </g>
    </g>
  </g>
</svg>