<?xml version="1.0" encoding="UTF-8"?>
<svg id="Layer_2" data-name="Layer 2" xmlns="http://www.w3.org/2000/svg" viewBox="0 0 2214.69 886.59">
  <defs>
    <style>
      .cls-1 {
        fill: #fff;
      }

      .cls-2 {
        fill: #ffe2b6;
      }

      .cls-3 {
        fill: #008a2b;
      }

      .cls-4 {
        fill: #7fda6d;
      }

      .cls-5 {
        fill: #ffc29b;
      }

      .cls-6 {
        fill: #ffb07a;
      }

      .cls-7 {
        fill: #ff8053;
      }

      .cls-8 {
        fill: #493b62;
      }

      .cls-9 {
        fill: #42b55e;
      }
    </style>
  </defs>
  <g id="Layer_1-2" data-name="Layer 1">
    <g>
      <g>
        <rect class="cls-2" x="156.44" y="312.87" width="52.21" height="52.21"/>
        <rect class="cls-2" x="104.32" y="417.19" width="52.11" height="52.21"/>
        <g>
          <rect class="cls-4" x="365.08" y="260.76" width="52.21" height="52.11"/>
          <rect class="cls-4" x="365.08" y="156.44" width="52.21" height="52.11"/>
          <polygon class="cls-4" points="312.97 208.55 312.97 156.44 312.97 104.32 312.97 52.11 260.76 52.11 208.64 52.11 208.64 104.32 208.64 156.44 208.64 208.55 156.44 208.55 156.44 260.76 208.64 260.76 260.76 260.76 312.97 260.76 365.08 260.76 365.08 208.55 312.97 208.55"/>
          <rect class="cls-4" x="104.32" y="260.76" width="52.11" height="52.11"/>
          <rect class="cls-4" x="104.32" y="156.44" width="52.11" height="52.11"/>
        </g>
        <polygon class="cls-6" points="365.08 312.87 365.08 260.76 312.97 260.76 260.76 260.76 208.64 260.76 156.44 260.76 156.44 312.87 208.64 312.87 208.64 365.08 260.76 365.08 260.76 417.19 260.76 469.4 260.76 521.51 208.64 521.51 208.64 469.4 208.64 417.19 208.64 365.08 156.44 365.08 156.44 312.87 104.32 312.87 104.32 365.08 104.32 417.19 156.44 417.19 156.44 469.4 104.32 469.4 104.32 521.51 104.32 573.72 156.44 573.72 156.44 625.84 156.44 677.95 156.44 730.16 208.64 730.16 208.64 782.27 208.64 834.48 260.76 834.48 312.97 834.48 312.97 782.27 312.97 730.16 365.08 730.16 365.08 677.95 365.08 625.84 365.08 573.72 417.29 573.72 417.29 521.51 417.29 469.4 417.29 417.19 417.29 365.08 417.29 312.87 365.08 312.87"/>
        <polygon class="cls-7" points="365.08 312.87 365.08 365.08 365.08 417.19 365.08 469.4 365.08 521.51 312.97 521.51 312.97 573.72 312.97 625.84 312.97 677.95 260.76 677.95 208.64 677.95 208.64 730.16 208.64 782.27 208.64 834.48 260.76 834.48 312.97 834.48 312.97 782.27 312.97 730.16 365.08 730.16 365.08 677.95 365.08 625.84 365.08 573.72 417.29 573.72 417.29 521.51 417.29 469.4 417.29 417.19 417.29 365.08 417.29 312.87 365.08 312.87"/>
        <rect class="cls-2" x="156.44" y="417.19" width="52.21" height="52.21"/>
        <rect class="cls-2" x="156.44" y="365.08" width="52.21" height="52.11"/>
        <g>
          <rect class="cls-9" x="417.29" y="104.32" width="52.11" height="52.11"/>
          <rect class="cls-9" x="52.11" y="104.32" width="52.21" height="52.11"/>
          <rect class="cls-9" x="312.97" y="208.55" width="52.11" height="52.21"/>
          <rect class="cls-9" x="260.76" y="156.44" width="52.21" height="52.11"/>
          <rect class="cls-9" x="208.64" y="104.32" width="52.11" height="52.11"/>
          <rect class="cls-9" x="156.44" y="208.55" width="52.21" height="52.21"/>
        </g>
        <g>
          <rect class="cls-5" x="260.76" y="312.87" width="52.21" height="52.21"/>
          <rect class="cls-5" x="208.64" y="573.72" width="52.11" height="52.11"/>
          <polygon class="cls-5" points="208.64 417.19 208.64 469.4 208.64 521.51 260.76 521.51 260.76 469.4 260.76 417.19 260.76 365.08 208.64 365.08 208.64 417.19"/>
          <rect class="cls-5" x="156.44" y="521.51" width="52.21" height="52.21"/>
          <rect class="cls-5" x="156.44" y="312.87" width="52.21" height="52.21"/>
          <rect class="cls-5" x="104.32" y="417.19" width="52.11" height="52.21"/>
        </g>
        <g>
          <rect class="cls-3" x="365.08" y="260.76" width="52.21" height="52.11"/>
          <polygon class="cls-3" points="208.64 208.55 208.64 260.76 260.76 260.76 312.97 260.76 312.97 208.55 260.76 208.55 208.64 208.55"/>
          <rect class="cls-3" x="104.32" y="260.76" width="52.11" height="52.11"/>
        </g>
        <polygon class="cls-1" points="156.44 365.08 156.44 417.19 156.44 469.4 208.64 469.4 208.64 417.19 208.64 365.08 156.44 365.08"/>
        <g>
          <rect class="cls-8" x="469.4" y="104.32" width="52.11" height="52.11"/>
          <polygon class="cls-8" points="417.29 417.19 417.29 469.4 417.29 521.51 417.29 573.72 469.4 573.72 469.4 521.51 469.4 469.4 469.4 417.19 469.4 365.08 469.4 312.87 417.29 312.87 417.29 365.08 417.29 417.19"/>
          <rect class="cls-8" x="417.29" y="156.44" width="52.11" height="52.11"/>
          <rect class="cls-8" x="417.29" y="52.11" width="52.11" height="52.21"/>
          <polygon class="cls-8" points="365.08 625.84 365.08 677.95 365.08 730.16 417.29 730.16 417.29 677.95 417.29 625.84 417.29 573.72 365.08 573.72 365.08 625.84"/>
          <polygon class="cls-8" points="365.08 260.76 365.08 312.87 417.29 312.87 417.29 260.76 417.29 208.55 365.08 208.55 365.08 260.76"/>
          <polygon class="cls-8" points="312.97 782.27 312.97 834.48 365.08 834.48 365.08 782.27 365.08 730.16 312.97 730.16 312.97 782.27"/>
          <polygon class="cls-8" points="312.97 156.44 312.97 208.55 365.08 208.55 365.08 156.44 417.29 156.44 417.29 104.32 365.08 104.32 365.08 52.11 312.97 52.11 312.97 104.32 312.97 156.44"/>
          <polygon class="cls-8" points="312.97 52.11 312.97 0 260.76 0 208.64 0 208.64 52.11 260.76 52.11 312.97 52.11"/>
          <polygon class="cls-8" points="208.64 834.48 208.64 886.59 260.76 886.59 312.97 886.59 312.97 834.48 260.76 834.48 208.64 834.48"/>
          <polygon class="cls-8" points="208.64 730.16 156.44 730.16 156.44 782.27 156.44 834.48 208.64 834.48 208.64 782.27 208.64 730.16"/>
          <polygon class="cls-8" points="156.44 625.84 156.44 573.72 104.32 573.72 104.32 625.84 104.32 677.95 104.32 730.16 156.44 730.16 156.44 677.95 156.44 625.84"/>
          <polygon class="cls-8" points="156.44 260.76 156.44 208.55 104.32 208.55 104.32 260.76 104.32 312.87 156.44 312.87 156.44 260.76"/>
          <polygon class="cls-8" points="156.44 156.44 156.44 208.55 208.64 208.55 208.64 156.44 208.64 104.32 208.64 52.11 156.44 52.11 156.44 104.32 104.32 104.32 104.32 156.44 156.44 156.44"/>
          <polygon class="cls-8" points="104.32 469.4 104.32 417.19 104.32 365.08 104.32 312.87 52.11 312.87 52.11 365.08 52.11 417.19 52.11 469.4 52.11 521.51 52.11 573.72 104.32 573.72 104.32 521.51 104.32 469.4"/>
          <rect class="cls-8" x="52.11" y="156.44" width="52.21" height="52.11"/>
          <rect class="cls-8" x="52.11" y="52.11" width="52.21" height="52.21"/>
          <rect class="cls-8" y="104.32" width="52.11" height="52.11"/>
        </g>
      </g>
      <g>
        <path class="cls-8" d="M649.97,106.58c29.82,.92,59.65,1.74,89.47,2.46-.41,9.94-.82,19.87-1.23,29.81,19.89,.48,39.77,.92,59.66,1.33-.41,9.94-.82,19.87-1.23,29.81,9.94,.2,19.89,.39,29.83,.58-.82,19.87-1.63,39.74-2.45,59.62,9.95,.18,19.89,.36,29.84,.52-2.04,49.68-4.09,99.36-6.13,149.04-9.95-.17-19.89-.34-29.84-.52-.82,19.87-1.63,39.74-2.45,59.62-19.89-.37-39.78-.77-59.67-1.21-.41,9.94-.82,19.87-1.23,29.81-49.72-1.1-99.43-2.45-149.12-4.11l1.23-29.81c-19.88-.66-39.75-1.37-59.63-2.14,.82-19.87,1.63-39.74,2.45-59.62-9.94-.38-19.87-.78-29.81-1.19,2.04-49.68,4.09-99.36,6.13-149.04,9.94,.41,19.87,.8,29.81,1.19,.82-19.87,1.63-39.74,2.45-59.62,9.94,.38,19.87,.75,29.81,1.11,.41-9.94,.82-19.87,1.23-29.81,19.88,.71,39.75,1.37,59.63,1.99,.41-9.94,.82-19.87,1.23-29.81Zm-3.68,89.42l-1.23,29.81c-9.94-.31-19.88-.63-29.82-.96-.82,19.87-1.63,39.74-2.45,59.62,9.94,.33,19.88,.65,29.82,.96l-1.23,29.81c19.88,.61,39.76,1.18,59.65,1.71,.41-9.94,.82-19.87,1.23-29.81,9.94,.26,19.88,.51,29.83,.75,.82-19.87,1.63-39.74,2.45-59.62-9.94-.24-19.89-.49-29.83-.75,.41-9.94,.82-19.87,1.23-29.81-19.88-.52-39.77-1.09-59.65-1.71Z"/>
        <path class="cls-8" d="M978.15,113.09c59.69,.64,119.39,1.05,179.09,1.33l-1.23,29.81c9.95,.05,19.9,.09,29.85,.13-.41,9.94-.82,19.87-1.23,29.81,9.95,.04,19.9,.08,29.85,.11-1.63,39.74-3.27,79.49-4.9,119.23-9.95-.03-19.9-.07-29.85-.11-.41,9.94-.82,19.87-1.23,29.81-9.95-.04-19.9-.08-29.85-.13l-1.23,29.81c9.95,.05,19.9,.09,29.85,.13-.41,9.94-.82,19.87-1.23,29.81,9.95,.04,19.9,.08,29.85,.11-.82,19.87-1.63,39.74-2.45,59.62-9.95-.03-19.9-.07-29.85-.11-.41,9.94-.82,19.87-1.23,29.81-29.85-.12-59.71-.27-89.56-.45l1.23-29.81c-9.95-.06-19.9-.13-29.85-.2l1.23-29.81c-9.95-.07-19.9-.15-29.85-.23,.41-9.94,.82-19.87,1.23-29.81-9.95-.08-19.9-.17-29.85-.27-.82,19.87-1.63,39.74-2.45,59.62-9.95-.09-19.9-.19-29.85-.3-.41,9.94-.82,19.87-1.23,29.81-19.9-.21-39.79-.45-59.69-.72,.41-9.94,.82-19.87,1.23-29.81-9.95-.13-19.89-.28-29.84-.43,2.04-49.68,4.09-99.36,6.13-149.04,9.95,.15,19.89,.29,29.84,.43l3.68-89.42c9.95,.13,19.89,.26,29.84,.38,.82-19.87,1.63-39.74,2.45-59.62,9.95,.12,19.9,.23,29.84,.34,.41-9.94,.82-19.87,1.23-29.81Zm56.02,89.99l-1.23,29.81c-9.95-.08-19.9-.17-29.85-.27-.82,19.87-1.63,39.74-2.45,59.62,19.9,.19,39.8,.35,59.7,.5,.41-9.94,.82-19.87,1.23-29.81,9.95,.07,19.9,.14,29.85,.2,.82-19.87,1.63-39.74,2.45-59.62-19.9-.13-39.8-.27-59.7-.43Z"/>
        <path class="cls-8" d="M1336.38,114.97c69.66,.14,139.33,.25,208.99,.49-.41,9.94-.82,19.87-1.23,29.81,9.95,.03,19.9,.07,29.85,.11-.82,19.87-1.63,39.74-2.45,59.62-9.95-.04-19.9-.08-29.85-.11l-1.23,29.81c-19.9-.07-39.81-.13-59.71-.18-1.63,39.74-3.27,79.49-4.9,119.23,9.95,.03,19.9,.05,29.86,.08-1.23,29.81-2.45,59.62-3.68,89.42-9.95-.03-19.9-.06-29.86-.08-.41,9.94-.82,19.87-1.23,29.81-29.85-.08-59.71-.14-89.57-.2,.82-19.87,1.63-39.74,2.45-59.62-9.95-.02-19.9-.04-29.86-.06l6.13-149.04c-9.95-.02-19.9-.04-29.86-.06-.41,9.94-.82,19.87-1.23,29.81-19.9-.04-39.81-.09-59.71-.14l1.23-29.81c-9.95-.03-19.9-.05-29.85-.08,1.23-29.81,2.45-59.62,3.68-89.42,9.95,.03,19.9,.06,29.85,.08,.41-9.94,.82-19.87,1.23-29.81,19.9,.05,39.81,.09,59.71,.14l1.23-29.81Z"/>
        <path class="cls-8" d="M1634.93,115.85c29.85,.16,59.7,.36,89.55,.61-.41,9.94-.82,19.87-1.23,29.81,9.95,.08,19.9,.17,29.85,.27-1.23,29.81-2.45,59.62-3.68,89.42-9.95-.09-19.9-.18-29.85-.27-1.23,29.81-2.45,59.62-3.68,89.42,9.95,.08,19.9,.17,29.85,.27-.41,9.94-.82,19.87-1.23,29.81,9.95,.09,19.9,.19,29.85,.3l1.23-29.81c9.95,.11,19.9,.22,29.84,.34,.82-19.87,1.63-39.74,2.45-59.62-9.95-.12-19.9-.23-29.84-.34,1.23-29.81,2.45-59.62,3.68-89.42,9.95,.11,19.9,.22,29.84,.34,.41-9.94,.82-19.87,1.23-29.81,19.9,.24,39.79,.51,59.68,.81-.41,9.94-.82,19.87-1.23,29.81,9.95,.15,19.89,.31,29.84,.47-.82,19.87-1.63,39.74-2.45,59.62,9.95,.17,19.89,.34,29.84,.52l-6.13,149.04c-9.95-.18-19.89-.36-29.84-.52-.82,19.87-1.63,39.74-2.45,59.62-9.95-.17-19.89-.32-29.84-.47l-1.23,29.81c-69.63-1.05-139.27-1.71-208.92-2.15,.41-9.94,.82-19.87,1.23-29.81-9.95-.06-19.9-.12-29.85-.18,.82-19.87,1.63-39.74,2.45-59.62-9.95-.05-19.9-.1-29.85-.15l8.58-208.65c9.95,.05,19.9,.1,29.85,.15,.82-19.87,1.63-39.74,2.45-59.62Z"/>
        <path class="cls-8" d="M604.46,487.17c49.7,1.65,99.4,3,149.12,4.11l-1.23,29.81c9.94,.22,19.89,.43,29.83,.63-.82,19.87-1.63,39.74-2.45,59.62-9.94-.2-19.89-.41-29.83-.63l-1.23,29.81c-19.89-.44-39.77-.92-59.66-1.45,.41-9.94,.82-19.87,1.23-29.81-9.94-.26-19.88-.53-29.82-.82l-1.23,29.81c9.94,.28,19.88,.56,29.82,.82-.41,9.94-.82,19.87-1.23,29.81,19.88,.52,39.77,1,59.66,1.45-.41,9.94-.82,19.87-1.23,29.81,9.94,.22,19.89,.43,29.83,.63-.41,9.94-.82,19.87-1.23,29.81,9.94,.2,19.89,.39,29.83,.58l-3.68,89.42c-9.95-.18-19.89-.38-29.83-.58-.41,9.94-.82,19.87-1.23,29.81-19.89-.4-39.78-.84-59.66-1.33-.41,9.94-.82,19.87-1.23,29.81-59.66-1.45-119.3-3.26-178.92-5.55,.41-9.94,.82-19.87,1.23-29.81-9.94-.38-19.87-.78-29.81-1.19,1.23-29.81,2.45-59.62,3.68-89.42,9.94,.41,19.87,.8,29.81,1.19l1.23-29.81c19.87,.76,39.75,1.47,59.63,2.14-.41,9.94-.82,19.87-1.23,29.81,19.88,.66,39.76,1.28,59.64,1.84l1.23-29.81c-19.88-.57-39.76-1.18-59.64-1.84l1.23-29.81c-9.94-.33-19.88-.67-29.82-1.03l1.23-29.81c-9.94-.36-19.88-.72-29.81-1.11,1.23-29.81,2.45-59.62,3.68-89.42,9.94,.38,19.87,.75,29.81,1.11l1.23-29.81c9.94,.36,19.88,.7,29.82,1.03,.41-9.94,.82-19.87,1.23-29.81Z"/>
        <path class="cls-8" d="M932.61,494.3c59.69,.72,119.38,1.19,179.09,1.52l-1.23,29.81c9.95,.05,19.9,.1,29.85,.15-.82,19.87-1.63,39.74-2.45,59.62-9.95-.05-19.9-.1-29.85-.15-.41,9.94-.82,19.87-1.23,29.81-39.8-.22-79.6-.5-119.4-.88-.41,9.94-.82,19.87-1.23,29.81,29.85,.28,59.7,.51,89.55,.7-.82,19.87-1.63,39.74-2.45,59.62-9.95-.06-19.9-.13-29.85-.2l-1.23,29.81c-29.85-.22-59.7-.48-89.54-.8-.41,9.94-.82,19.87-1.23,29.81,49.74,.53,99.49,.91,149.24,1.18-.82,19.87-1.63,39.74-2.45,59.62-9.95-.05-19.9-.11-29.85-.18-.41,9.94-.82,19.87-1.23,29.81-69.65-.44-139.29-1.1-208.92-2.15,.41-9.94,.82-19.87,1.23-29.81-9.95-.15-19.89-.31-29.84-.47,2.04-49.68,4.09-99.36,6.13-149.04,9.95,.17,19.89,.32,29.84,.47,1.23-29.81,2.45-59.62,3.68-89.42,9.95,.15,19.89,.29,29.84,.43,.82-19.87,1.63-39.74,2.45-59.62,9.95,.13,19.89,.26,29.84,.38,.41-9.94,.82-19.87,1.23-29.81Z"/>
        <path class="cls-8" d="M1201.27,496.2c19.9,.07,39.81,.13,59.71,.18l-1.23,29.81c9.95,.03,19.9,.05,29.86,.07-1.23,29.81-2.45,59.62-3.68,89.42,19.9,.04,39.81,.09,59.71,.12,1.23-29.81,2.45-59.62,3.68-89.42,9.95,.02,19.9,.04,29.86,.06l1.23-29.81c19.9,.04,39.81,.08,59.71,.12-.82,19.87-1.63,39.74-2.45,59.62,9.95,.02,19.9,.05,29.86,.07-1.63,39.74-3.27,79.49-4.9,119.23,9.95,.03,19.9,.05,29.85,.08-2.04,49.68-4.09,99.36-6.13,149.04-9.95-.03-19.9-.06-29.85-.08l-1.23,29.81c-19.9-.05-39.81-.09-59.71-.14l1.23-29.81c-9.95-.02-19.9-.04-29.86-.06,1.23-29.81,2.45-59.62,3.68-89.42-29.86-.06-59.71-.12-89.57-.18-1.23,29.81-2.45,59.62-3.68,89.42-9.95-.02-19.9-.05-29.86-.07-.41,9.94-.82,19.87-1.23,29.81-19.9-.05-39.81-.11-59.71-.18l1.23-29.81c-9.95-.03-19.9-.07-29.85-.11,4.09-99.36,8.17-198.72,12.26-298.08,9.95,.04,19.9,.08,29.85,.11l1.23-29.81Z"/>
        <path class="cls-8" d="M1678.94,497.78c39.8,.29,79.59,.66,119.39,1.14l-1.23,29.81c9.95,.12,19.9,.25,29.84,.38-.82,19.87-1.63,39.74-2.45,59.62,9.95,.13,19.89,.28,29.84,.43-3.27,79.49-6.54,158.98-9.81,238.46-9.95-.15-19.89-.29-29.84-.43-.41,9.94-.82,19.87-1.23,29.81-19.89-.27-39.79-.51-59.69-.72,.41-9.94,.82-19.87,1.23-29.81-9.95-.11-19.9-.21-29.85-.3,.41-9.94,.82-19.87,1.23-29.81-9.95-.09-19.9-.18-29.85-.27l1.23-29.81c-19.9-.17-39.8-.31-59.7-.43l-1.23,29.81c-9.95-.06-19.9-.12-29.85-.17-.41,9.94-.82,19.87-1.23,29.81-19.9-.11-39.8-.2-59.7-.28,.41-9.94,.82-19.87,1.23-29.81-9.95-.04-19.9-.08-29.85-.11,1.23-29.81,2.45-59.62,3.68-89.42,9.95,.03,19.9,.07,29.85,.11,.82-19.87,1.63-39.74,2.45-59.62,9.95,.04,19.9,.08,29.85,.13,.82-19.87,1.63-39.74,2.45-59.62,9.95,.05,19.9,.1,29.85,.15,.41-9.94,.82-19.87,1.23-29.81,9.95,.05,19.9,.11,29.85,.17,.41-9.94,.82-19.87,1.23-29.81,9.95,.06,19.9,.13,29.85,.2l1.23-29.81Zm24.95,119.46l-1.23,29.81c-9.95-.08-19.9-.16-29.85-.23l-1.23,29.81c19.9,.14,39.8,.31,59.7,.5-.41,9.94-.82,19.87-1.23,29.81,9.95,.09,19.9,.19,29.85,.3,1.23-29.81,2.45-59.62,3.68-89.42-19.9-.21-39.79-.4-59.69-.57Z"/>
        <path class="cls-8" d="M1977.35,501.93c69.61,1.55,139.19,3.57,208.75,6.24-.41,9.94-.82,19.87-1.23,29.81,9.94,.38,19.87,.78,29.81,1.19-.82,19.87-1.63,39.74-2.45,59.62-9.94-.41-19.87-.8-29.81-1.19l-1.23,29.81c-19.87-.76-39.75-1.47-59.63-2.14-1.63,39.74-3.27,79.49-4.9,119.23,9.94,.33,19.88,.67,29.82,1.03-1.23,29.81-2.45,59.62-3.68,89.42-9.94-.36-19.88-.7-29.82-1.03-.41,9.94-.82,19.87-1.23,29.81-29.82-.99-59.64-1.88-89.47-2.66,.82-19.87,1.63-39.74,2.45-59.62-9.94-.26-19.88-.51-29.83-.75,2.04-49.68,4.09-99.36,6.13-149.04-9.94-.24-19.89-.47-29.83-.69-.41,9.94-.82,19.87-1.23,29.81-19.89-.44-39.78-.84-59.67-1.21,.41-9.94,.82-19.87,1.23-29.81-9.95-.18-19.89-.36-29.84-.52,1.23-29.81,2.45-59.62,3.68-89.42,9.95,.17,19.89,.34,29.84,.52,.41-9.94,.82-19.87,1.23-29.81,19.89,.37,39.78,.77,59.67,1.21,.41-9.94,.82-19.87,1.23-29.81Z"/>
      </g>
    </g>
  </g>
</svg>